<svg id="Layer_1" data-name="Layer 1" xmlns="http://www.w3.org/2000/svg" viewBox="0 0 260.37 56.43"><defs><style>.cls-1{fill:#fefefe;}.cls-2{fill:#d76072;}.cls-3{fill:#014ba8;}.cls-4{fill:#004aa7;}.cls-5{fill:#5a4e9a;}.cls-6{fill:#c61c35;}.cls-7{fill:#4c80c1;}.cls-8{fill:#99b7dc;}.cls-9{fill:#e8a4ad;}.cls-10{fill:#fdfdfe;}</style></defs><title>PlanScore Logo</title><path class="cls-1" d="M-.27,22.31V-.17h261V56.24H-.27V24.06c0,.42.09.84.12,1.27A23.21,23.21,0,0,0,3.49,35.86,30,30,0,0,0,8,41.05l.24.22V23.9H6.67l-6.94,0V22.45H8.24A14.83,14.83,0,0,1,12,13.28l-6-6c-.28.32-.6.67-.9,1A23,23,0,0,0-.14,21C-.18,21.42-.23,21.86-.27,22.31ZM37.9,23.92c-.66,6.24-3.69,10.81-9.57,13.06s-11.19.87-15.83-3.32V34c0,3.75,0,7.5,0,11.24a.79.79,0,0,0,.25.61l10,10,.28.27.22-.21q8.15-8.13,16.28-16.29a26.3,26.3,0,0,0,1.85-2.09,23,23,0,0,0,4.8-11.74c.08-.61.1-1.24.15-1.87ZM68.55,43.17V29.55H69c2.16,0,4.32,0,6.48-.13a16,16,0,0,0,4.94-1,7.81,7.81,0,0,0,4.9-4.78,11.94,11.94,0,0,0,.49-5.47,8,8,0,0,0-4.71-6.61,15,15,0,0,0-6.43-1.36c-3.92-.06-7.84,0-11.76,0l-.21,0V43.17Zm79.5-3.62a10.63,10.63,0,0,0,3.69,2.92,16.37,16.37,0,0,0,12,.8,9.76,9.76,0,0,0,6.14-5,11.09,11.09,0,0,0,1-6A7.71,7.71,0,0,0,168.26,27a11.19,11.19,0,0,0-3.81-2.27c-1.52-.56-3.08-1-4.62-1.55a12.18,12.18,0,0,1-3.32-1.67A2.86,2.86,0,0,1,155.4,20a3.84,3.84,0,0,1,2.06-4.56,7.66,7.66,0,0,1,5-.52,6.1,6.1,0,0,1,3.92,2.33s.05,0,.09.05l4.24-4.47a11.6,11.6,0,0,0-4-2.47,16.2,16.2,0,0,0-6.94-.86,14.25,14.25,0,0,0-5.9,1.74,9.21,9.21,0,0,0-4.31,5.11,10.48,10.48,0,0,0-.34,4.79,7.36,7.36,0,0,0,2.16,4.31,10.63,10.63,0,0,0,3.92,2.48c1.3.5,2.64.89,4,1.34a14.35,14.35,0,0,1,3.95,1.88,3.49,3.49,0,0,1,1.33,1.7,4.12,4.12,0,0,1-2.2,5.12,7.81,7.81,0,0,1-9.65-2.33l-.24-.31Zm-125-5.9A10.48,10.48,0,1,0,12.57,23.19,10.47,10.47,0,0,0,23.05,33.65ZM194.26,32c.08.72.11,1.46.24,2.18a10.82,10.82,0,0,0,5.85,8.11,13.11,13.11,0,0,0,9.92.92,11,11,0,0,0,6.85-5.29,11.78,11.78,0,0,0,1.31-8,10.85,10.85,0,0,0-5.79-8.12,13.11,13.11,0,0,0-8.39-1.31,11.48,11.48,0,0,0-10,11.54Zm66.39,2V32.59a16.18,16.18,0,0,0-.95-5.81,9.45,9.45,0,0,0-6.23-6,12.06,12.06,0,0,0-6.17-.18,11.22,11.22,0,0,0-7.76,5.48,11.85,11.85,0,0,0-1.34,8.12,10.8,10.8,0,0,0,4.89,7.55,12.67,12.67,0,0,0,8.15,2,11.3,11.3,0,0,0,8.13-4.12l.24-.31-4-3-.28.31a7.24,7.24,0,0,1-6,2.71,6,6,0,0,1-4.4-2,5.75,5.75,0,0,1-1.3-3.26ZM114.3,43.16h5v-.31c0-4.14,0-8.28,0-12.42a27.76,27.76,0,0,0-.18-3.16,7.83,7.83,0,0,0-1.51-3.93,7.57,7.57,0,0,0-4.21-2.63,14.55,14.55,0,0,0-6-.26,12.33,12.33,0,0,0-5.53,2.06c-.55.41-1.07.87-1.59,1.3l3,2.94s0,0,0,0l.21-.18a8.3,8.3,0,0,1,8-1.71c2.09.64,3,2.16,2.74,4.43h-.4c-2,.07-4,.1-6,.25a14.51,14.51,0,0,0-4.75,1.16A6.56,6.56,0,0,0,99,38.11a6,6,0,0,0,3.42,4.56,10,10,0,0,0,6,1,7.61,7.61,0,0,0,5.73-3.37,2.11,2.11,0,0,1,.24-.26Zm30.32,0v-.31c0-4.57,0-9.14,0-13.71a15.63,15.63,0,0,0-.25-2.64,7.11,7.11,0,0,0-3-4.85,8.9,8.9,0,0,0-6.89-1.19,6.76,6.76,0,0,0-4.69,3.63l-.17.31-.1,0V20.86h-5.28v22.3h5.56v-.45q0-5.68,0-11.37a12.61,12.61,0,0,1,.12-1.74,4.69,4.69,0,0,1,4.25-4.26c2.06-.2,3.68.37,4.42,2.8a9.29,9.29,0,0,1,.38,2.57c.05,4,0,8,0,12v.42Zm48.61-19.54a9.49,9.49,0,0,0-2.32-1.86A12.14,12.14,0,0,0,182,20.64a11.09,11.09,0,0,0-8,6.47,12,12,0,0,0-.82,7.06A10.56,10.56,0,0,0,178,41.66a12.47,12.47,0,0,0,13.45.29,18.64,18.64,0,0,0,1.8-1.28l-3.76-4.05c-.15.18-.27.32-.4.45a5.82,5.82,0,0,1-6.43,1.19c-4.5-1.81-5.1-7.43-2.64-10.55,1.71-2.17,5.66-3.74,8.72-.79l.62.57ZM89.57,43.17h5.55V8H89.57ZM227.74,24.32V20.86h-5.56v22.3h5.57v-.43c0-3.77,0-7.54,0-11.31a5.73,5.73,0,0,1,6.78-5.79c.64.07,1.27.22,1.9.33V20.55C232.64,19.75,229.73,20.9,227.74,24.32ZM32.94,12.13l6-6A23.25,23.25,0,0,0,23.78-.12V8.37A14.8,14.8,0,0,1,32.94,12.13ZM22.32-.13A23.33,23.33,0,0,0,7.14,6.14l6,6,.31-.23A14.42,14.42,0,0,1,22,8.41c.28,0,.4-.1.4-.41,0-2.57,0-5.15,0-7.72C22.34.17,22.33.06,22.32-.13ZM34.05,13.23a14.89,14.89,0,0,1,3.81,9.19h8.5c0-.22,0-.4-.06-.58-.13-1.06-.19-2.13-.39-3.17A23.28,23.28,0,0,0,40.33,7.52c-.22-.25-.36-.24-.6,0-1.8,1.82-3.61,3.62-5.42,5.43Z"/><path class="cls-2" d="M-.27,22.31c0-.45.09-.89.13-1.34A23,23,0,0,1,5.1,8.32c.3-.37.62-.72.9-1l6,6a14.83,14.83,0,0,0-3.77,9.17H-.27Z"/><path class="cls-3" d="M-.27,23.92l6.94,0H8.21V41.27L8,41.05a30,30,0,0,1-4.48-5.19A23.21,23.21,0,0,1-.15,25.33c0-.43-.08-.85-.12-1.27Z"/><path class="cls-4" d="M37.9,23.92h8.45c-.05.63-.07,1.26-.15,1.87a23,23,0,0,1-4.8,11.74,26.3,26.3,0,0,1-1.85,2.09q-8.13,8.16-16.28,16.29l-.22.21-.28-.27-10-10a.79.79,0,0,1-.25-.61c0-3.74,0-7.49,0-11.24v-.33c4.64,4.19,10,5.57,15.83,3.32S37.24,30.16,37.9,23.92Z"/><path class="cls-5" d="M68.55,43.17H62.7V10.24l.21,0c3.92,0,7.84,0,11.76,0a15,15,0,0,1,6.43,1.36,8,8,0,0,1,4.71,6.61,11.94,11.94,0,0,1-.49,5.47,7.81,7.81,0,0,1-4.9,4.78,16,16,0,0,1-4.94,1c-2.16.09-4.32.09-6.48.13h-.45Zm0-27.87v9.2l.16,0c1.78,0,3.56,0,5.34-.06a8.24,8.24,0,0,0,3.28-.68,3.77,3.77,0,0,0,2.12-2.15,5.2,5.2,0,0,0,0-3.33,3.78,3.78,0,0,0-2.73-2.52,10.45,10.45,0,0,0-2.66-.46C72.29,15.25,70.44,15.3,68.58,15.3Z"/><path class="cls-5" d="M148.05,39.55l4.41-4.27.24.31a7.81,7.81,0,0,0,9.65,2.33,4.12,4.12,0,0,0,2.2-5.12,3.49,3.49,0,0,0-1.33-1.7,14.35,14.35,0,0,0-3.95-1.88c-1.31-.45-2.65-.84-4-1.34a10.63,10.63,0,0,1-3.92-2.48,7.36,7.36,0,0,1-2.16-4.31,10.48,10.48,0,0,1,.34-4.79,9.21,9.21,0,0,1,4.31-5.11,14.25,14.25,0,0,1,5.9-1.74,16.2,16.2,0,0,1,6.94.86,11.6,11.6,0,0,1,4,2.47l-4.24,4.47s-.08,0-.09-.05a6.1,6.1,0,0,0-3.92-2.33,7.66,7.66,0,0,0-5,.52A3.84,3.84,0,0,0,155.4,20a2.86,2.86,0,0,0,1.11,1.59,12.18,12.18,0,0,0,3.32,1.67c1.54.53,3.1,1,4.62,1.55A11.19,11.19,0,0,1,168.26,27a7.71,7.71,0,0,1,2.59,5.21,11.09,11.09,0,0,1-1,6,9.76,9.76,0,0,1-6.14,5,16.37,16.37,0,0,1-12-.8A10.63,10.63,0,0,1,148.05,39.55Z"/><path class="cls-6" d="M23.05,33.65A10.48,10.48,0,1,1,33.52,23.19,10.47,10.47,0,0,1,23.05,33.65Z"/><path class="cls-5" d="M194.26,32a11.48,11.48,0,0,1,10-11.54,13.11,13.11,0,0,1,8.39,1.31,10.85,10.85,0,0,1,5.79,8.12,11.78,11.78,0,0,1-1.31,8,11,11,0,0,1-6.85,5.29,13.11,13.11,0,0,1-9.92-.92,10.82,10.82,0,0,1-5.85-8.11C194.37,33.45,194.34,32.71,194.26,32Zm18.79,0c0-.38-.06-.76-.12-1.14a6.56,6.56,0,0,0-13,1.69A6.57,6.57,0,0,0,213.05,32Z"/><path class="cls-5" d="M260.65,34h-17a5.75,5.75,0,0,0,1.3,3.26,6,6,0,0,0,4.4,2,7.24,7.24,0,0,0,6-2.71l.28-.31,4,3-.24.31a11.3,11.3,0,0,1-8.13,4.12,12.67,12.67,0,0,1-8.15-2,10.8,10.8,0,0,1-4.89-7.55,11.85,11.85,0,0,1,1.34-8.12,11.22,11.22,0,0,1,7.76-5.48,12.06,12.06,0,0,1,6.17.18,9.45,9.45,0,0,1,6.23,6,16.18,16.18,0,0,1,.95,5.81Zm-17.07-4.21H255a4.91,4.91,0,0,0-2.62-4.66,6.81,6.81,0,0,0-3.21-.63,5.27,5.27,0,0,0-5.26,3.89C243.78,28.81,243.69,29.27,243.58,29.76Z"/><path class="cls-5" d="M114.3,43.16V40a2.11,2.11,0,0,0-.24.26,7.61,7.61,0,0,1-5.73,3.37,10,10,0,0,1-6-1A6,6,0,0,1,99,38.11a6.56,6.56,0,0,1,4.21-7.43,14.51,14.51,0,0,1,4.75-1.16c2-.15,4-.18,6-.25h.4c.23-2.27-.65-3.79-2.74-4.43a8.3,8.3,0,0,0-8,1.71l-.21.18s0,0,0,0l-3-2.94c.52-.43,1-.89,1.59-1.3a12.33,12.33,0,0,1,5.53-2.06,14.55,14.55,0,0,1,6,.26,7.57,7.57,0,0,1,4.21,2.63,7.83,7.83,0,0,1,1.51,3.93,27.76,27.76,0,0,1,.18,3.16c0,4.14,0,8.28,0,12.42v.31ZM114,33.21l-.15,0c-1.66.08-3.33.1-5,.25a7,7,0,0,0-3.26,1.12,2.47,2.47,0,0,0-.3,4,3.62,3.62,0,0,0,1.51.83,7.16,7.16,0,0,0,2.84.12A4.7,4.7,0,0,0,113,37.76C114,36.4,114,34.82,114,33.21Z"/><path class="cls-5" d="M144.62,43.17H139v-.42c0-4,0-8,0-12a9.29,9.29,0,0,0-.38-2.57c-.74-2.43-2.36-3-4.42-2.8a4.69,4.69,0,0,0-4.25,4.26,12.61,12.61,0,0,0-.12,1.74q0,5.69,0,11.37v.45h-5.56V20.86h5.28v3.52l.1,0,.17-.31a6.76,6.76,0,0,1,4.69-3.63,8.9,8.9,0,0,1,6.89,1.19,7.11,7.11,0,0,1,3,4.85,15.63,15.63,0,0,1,.25,2.64c0,4.57,0,9.14,0,13.71Z"/><path class="cls-5" d="M193.23,23.63l-3.85,3.86-.62-.57c-3.06-3-7-1.38-8.72.79-2.46,3.12-1.86,8.74,2.64,10.55a5.82,5.82,0,0,0,6.43-1.19c.13-.13.25-.27.4-.45l3.76,4.05a18.64,18.64,0,0,1-1.8,1.28A12.47,12.47,0,0,1,178,41.66a10.56,10.56,0,0,1-4.82-7.49,12,12,0,0,1,.82-7.06,11.09,11.09,0,0,1,8-6.47,12.14,12.14,0,0,1,8.91,1.13A9.49,9.49,0,0,1,193.23,23.63Z"/><path class="cls-5" d="M89.57,43.17V8h5.55V43.17Z"/><path class="cls-5" d="M227.74,24.32c2-3.42,4.9-4.57,8.69-3.77V26c-.63-.11-1.26-.26-1.9-.33a5.73,5.73,0,0,0-6.78,5.79c0,3.77,0,7.54,0,11.31v.43h-5.57V20.86h5.56Z"/><path class="cls-7" d="M32.94,12.13a14.8,14.8,0,0,0-9.16-3.76V-.12A23.25,23.25,0,0,1,39,6.12Z"/><path class="cls-8" d="M22.32-.13c0,.19,0,.3,0,.41,0,2.57,0,5.15,0,7.72,0,.31-.12.39-.4.41a14.42,14.42,0,0,0-8.51,3.5l-.31.23-6-6A23.33,23.33,0,0,1,22.32-.13Z"/><path class="cls-9" d="M34.05,13.23l.26-.28c1.81-1.81,3.62-3.61,5.42-5.43.24-.24.38-.25.6,0a23.28,23.28,0,0,1,5.58,11.15c.2,1,.26,2.11.39,3.17,0,.18,0,.36.06.58h-8.5A14.89,14.89,0,0,0,34.05,13.23Z"/><path class="cls-1" d="M68.58,15.3c1.86,0,3.71-.05,5.56,0a10.45,10.45,0,0,1,2.66.46,3.78,3.78,0,0,1,2.73,2.52,5.2,5.2,0,0,1,0,3.33,3.77,3.77,0,0,1-2.12,2.15,8.24,8.24,0,0,1-3.28.68c-1.78,0-3.56,0-5.34.06l-.16,0Z"/><path class="cls-1" d="M213.05,32a6.57,6.57,0,0,1-13.12.55,6.56,6.56,0,0,1,13-1.69C213,31.26,213,31.64,213.05,32Z"/><path class="cls-10" d="M243.58,29.76c.11-.49.2-1,.34-1.4a5.27,5.27,0,0,1,5.26-3.89,6.81,6.81,0,0,1,3.21.63A4.91,4.91,0,0,1,255,29.76Z"/><path class="cls-10" d="M114,33.21c.06,1.61,0,3.19-1,4.55a4.7,4.7,0,0,1-3.34,1.71,7.16,7.16,0,0,1-2.84-.12,3.62,3.62,0,0,1-1.51-.83,2.47,2.47,0,0,1,.3-4,7,7,0,0,1,3.26-1.12c1.65-.15,3.32-.17,5-.25Z"/></svg>