<?xml version="1.0" encoding="utf-8"?>
<!-- Generator: Adobe Illustrator 22.0.1, SVG Export Plug-In . SVG Version: 6.00 Build 0)  -->
<svg version="1.1" id="Layer_1" xmlns="http://www.w3.org/2000/svg" xmlns:xlink="http://www.w3.org/1999/xlink" x="0px" y="0px"
	 viewBox="0 0 108.2 108" style="enable-background:new 0 0 108.2 108;" xml:space="preserve">
<style type="text/css">
	.Arched_x0020_Green{fill:url(#SVGID_1_);stroke:#FFFFFF;stroke-width:0.25;stroke-miterlimit:1;}
	.st0{fill:none;stroke:#000000;}
</style>
<linearGradient id="SVGID_1_" gradientUnits="userSpaceOnUse" x1="-107.8477" y1="0" x2="-107.1406" y2="-0.7071">
	<stop  offset="0" style="stop-color:#20AC4B"/>
	<stop  offset="0.9831" style="stop-color:#19361A"/>
</linearGradient>
<g>
	<path d="M54.7,54.1c-0.3,0.2-0.6,0.5-0.9,0.7c0.6,1.3,1.1,3.5,0.6,6.3c-0.8-1.5-1.7-3.1-2.9-4.5c-0.4,0.3-0.8,0.6-1.2,0.9
		c1.4,1.9,2.5,3.9,3.4,5.9c-0.7,2.1-2.5,4.6-3.1,5.4c-1.1-2.5-2.7-5.1-4.9-7.6c-0.5,0.4-1.1,0.9-1.6,1.3c2.3,2.6,4,5.2,5.3,7.7
		c-2.3,2.7-5.1,5-7.8,7c-1.4-2.9-5.2-9.5-5.2-9.4c-0.1-0.2-0.2-0.4-0.4-0.5c-1.8-2.6-4.4-5.4-6.9-7.9c2.2-1.3,4.4-2.8,6.3-4.5
		c1.8,1.2,3.8,2.8,5.8,4.7c0.4-0.5,0.8-1.1,1.2-1.6c-1.9-1.7-3.9-3.1-5.8-4.2c1.1-1.1,2.5-3.3,3.3-4.5c2.2,1,4.4,2.3,6.5,4.2
		c0.3-0.3,0.6-0.7,1-1c-2.2-1.9-4.6-3.2-7-4.2c0.7-1.4,0.8-2.2,0.8-2.5c2,0.7,4,1.7,5.9,3c0.3,0.7,0.7,1.8,0.8,3.1
		c0.5-0.5,0.9-1,1.4-1.4l0,0l0,0c0.2-0.2,0.4-0.4,0.6-0.6c-12.7-9.9-27.2-5.3-28.9-4.7v0.7c0.5-0.2,2.4-0.8,4.7-1.2
		c0.5,0.3,1.3,0.9,1.1,1.8c-3.1,0.2-5.3,0.8-5.8,0.9v0.2l0.1,0.1c0,0,2.2-0.6,5.6-0.7c-0.3,1-1.1,2-2,3c-1.5-0.2-2.7-0.3-3.6-0.3
		v0.3c0.8,0,1.9,0.1,3.2,0.4c-1,1-2.2,1.8-3.1,2.4c-0.1,0-0.1-0.1-0.2-0.1V53c0,0,0.1-0.1,0.1-0.1c1.1,1,3.1,3,5.9,6.2
		c-3.3,2.3-5.9,3.4-5.9,3.4v0.6c0,0,3-1.2,6.6-3.2c1.9,2.1,6.4,7.7,7,8.7c-3.5,2.3-7,3.9-9.8,5.1c-1.4-2.4-2.9-5-3.9-6.7v2.3
		c0.7,1.4,1.7,3.2,2.6,4.9c-1,0.4-1.9,0.7-2.6,0.9v0.6c0.7-0.2,1.7-0.5,2.9-1c1.7,3.5,2.9,5.4,5.2,8.8c0,0,0,0-0.1,0h1.5
		c2.2-0.8,6.1-2.5,10.6-5.5c1.4,2.4,2.4,4.3,3,5.5h0.5c-0.6-1.4-1.5-3.5-2.7-6c2.6-1.8,5.3-4,8-6.8c1.7,3.5,2.6,6.6,3,9
		c-1.5,1.6-3.1,2.9-4.3,3.8h1.1c0.9-0.7,2.1-1.7,3.3-2.8c0.2,1,0.3,1.7,0.3,2.3c0.1,0.9,0.2-0.1,0.2-0.1s0.1-1,0-2.8
		c1.3-1.3,2.6-2.8,3.5-4.4c0.2,2.1,0.3,3.7,0.3,4.4l0.4-2.5c0,0,0.1-1.2,0-3.2c1.3-2.5,1.9-4.4,2.2-5.6c0.9,7.5-1.9,13.1-2.8,14.7
		h1.2C59.6,81.3,65.9,66.9,54.7,54.1z M29.8,43.9c2.4-0.1,5.2,0,8.1,0.7c0.2,0.5,0.3,1.4,0.1,2.6c-3.1-0.9-6.2-1.2-8.8-1.2
		C29.9,44.8,29.9,44.2,29.8,43.9z M28.8,46.5c2.6,0.1,5.7,0.5,8.9,1.6c-0.7,2-2.2,3.6-2.9,4.4c-3.3-1.6-6.3-2.4-8.9-2.9
		C26.6,49.1,27.9,48,28.8,46.5z M21.7,52.7c1-0.7,2.4-1.6,3.6-2.5c2.3,0.6,5.2,1.6,8.4,3.5c-1.8,1.9-3.7,3.5-5.5,4.7
		C25.6,56,23.2,53.9,21.7,52.7z M30.1,83.3c-1.5-2.6-3.8-7.3-4.8-9c2.7-1.1,6.2-2.8,9.9-5.1c2.3,3.1,4.1,6,5.6,8.4
		C36.7,80.4,32.7,82.3,30.1,83.3z M53.5,79.3c-0.2-2.5-0.9-5.9-2.4-9.6c1.1-1.3,2.5-2.7,3.5-4.4c1.3,3.4,2,6.6,2.4,9.3
		C56.2,76.1,54.7,78.1,53.5,79.3z M57.8,73c-0.2-2.6-0.9-6-2.3-9.6c0.8-2.6,0.5-4.9,0.3-5.9c2,3.1,3.2,6.2,3.9,9
		C59.5,67.4,59,70.1,57.8,73z"/>
	<g>
		<path d="M95.2,27.6c-2-2.2-28.8-1.7-44.8,9c-0.1,2-0.2,3.9-0.2,5.7C79.5,24.9,94.9,30.1,95.2,27.6z"/>
		<path d="M71.8,24c3.4,0.1,6.3-2.5,6.4-5.9c0.1-3.4-2.5-6.3-5.9-6.4c-3.4-0.1-6.3,2.5-6.4,5.9C65.7,21,68.4,23.9,71.8,24z"/>
		<path d="M81.7,35.8c-20.1,0.5-40.4,23.1-44.7,31.3c23.9-21,39.3-26.6,41.1-25.6c0.3,0.2-0.3,0.9-0.6,1.1c-4,3.6-7.1,7.9-10,12.4
			c0.4,2.4,0.7,5.2,1.2,7.2c3.9-6.6,10-11.4,15.2-16.8C85.9,43.7,84.1,35.7,81.7,35.8z"/>
	</g>
</g>
<line class="st0" x1="20.9" y1="26.1" x2="20.9" y2="98.2"/>
</svg>
