<svg xmlns="http://www.w3.org/2000/svg" xmlns:xlink="http://www.w3.org/1999/xlink" viewBox="0 0 536 236.5"><defs><style>.cls-1{fill:#fff;stroke:#a9a9a9;stroke-miterlimit:10;stroke-width:2px;}.cls-2{fill:url(#linear-gradient);}</style><linearGradient id="linear-gradient" x1="0.5" y1="135.38" x2="535.5" y2="135.38" gradientUnits="userSpaceOnUse"><stop offset="0" stop-color="#0049a8"/><stop offset="0.5" stop-color="#f2e5fa"/><stop offset="1" stop-color="#c71c36"/></linearGradient><symbol id="Hashmarks" data-name="Hashmarks" viewBox="0 0 536 236.5"><line class="cls-1" x1="535" x2="535" y2="235"/><line class="cls-1" x1="266" x2="266" y2="235"/><line class="cls-1" x1="1" x2="1" y2="235"/><line class="cls-1" x1="1" y1="235.5" x2="535" y2="235.5"/></symbol></defs><title>statehouse_mmd_election_curve</title><g id="Layer_2" data-name="Layer 2"><g id="Final_Items" data-name="Final Items"><g id="statehouse_mmd_election_curve"><path id="statehouse_mmd_election_curve-2" data-name="statehouse_mmd_election_curve" class="cls-2" d="M.5,236.5s74.14,0,83.16-2,34.06-8,44.08-15,25.89-24.69,31.06-32c12-17,29-122,40.07-133,7-7,11.93-9.48,21-11,18-3,16,2,27.05,2,11.2,0,16-10.42,27-11,19-1,25.5.77,32.06,12,7,12,24.05,72,30.06,75,6.33,3.16,10,4,21,5,7.26.66,20.34,21.28,30.05,30,10,9,24,21,33.06,25s16,4,20,7,14,10,17,14,10,14,18,17,18,5,24,7v9l36.07,1Z"/><use id="Hashmarks-3" data-name="Hashmarks" width="536" height="236.5" xlink:href="#Hashmarks"/></g></g></g></svg>