<svg xmlns="http://www.w3.org/2000/svg" xmlns:xlink="http://www.w3.org/1999/xlink" viewBox="0 0 536 236.5"><defs><style>.cls-1{fill:#fff;stroke:#a9a9a9;stroke-miterlimit:10;stroke-width:2px;}.cls-2{fill:url(#linear-gradient);}</style><linearGradient id="linear-gradient" x1="0.92" y1="124.3" x2="465.54" y2="124.3" gradientUnits="userSpaceOnUse"><stop offset="0" stop-color="#0049a8"/><stop offset="0.57" stop-color="#f2e5fa"/><stop offset="1" stop-color="#c71c36"/></linearGradient><symbol id="Hashmarks" data-name="Hashmarks" viewBox="0 0 536 236.5"><line class="cls-1" x1="535" x2="535" y2="235"/><line class="cls-1" x1="266" x2="266" y2="235"/><line class="cls-1" x1="1" x2="1" y2="235"/><line class="cls-1" x1="1" y1="235.5" x2="535" y2="235.5"/></symbol></defs><g id="Layer_2" data-name="Layer 2"><g id="Final_Items_PLAN" data-name="Final Items PLAN"><g id="statesenate_eg_plan_curve"><path id="statesenate_eg_plan_curve_2020" class="cls-2" d="M.92,229.31,1,235.5l464.54.82V191s-20.65,25.52-31,12.76-20.65-77.61-31-89.31-20.65,22.33-31,19.14-20.65-18.08-31-38.28S321,15.6,310.66,12.41,290,66.64,279.69,76.2s-20.65-10.63-31-6.37-20.64,17-31,31.89-20.65,43.59-31,57.42-20.65,20.2-31,25.51-20.65,5.32-31,6.38-20.65-6.38-31,0-20.65,30.84-31,38.28-20.65,6.38-31,6.38-31-6.38-31-6.38"/><use width="536" height="236.5" xlink:href="#Hashmarks"/></g></g></g></svg>