<svg xmlns="http://www.w3.org/2000/svg" xmlns:xlink="http://www.w3.org/1999/xlink" viewBox="0 0 536 237.01"><defs><style>.cls-1{fill:#fff;stroke:#a9a9a9;stroke-miterlimit:10;stroke-width:2px;}.cls-2{fill:url(#linear-gradient);}</style><linearGradient id="linear-gradient" x1="0.5" y1="118.5" x2="535.5" y2="118.5" gradientUnits="userSpaceOnUse"><stop offset="0" stop-color="#0049a8"/><stop offset="0.5" stop-color="#f2e5fa"/><stop offset="1" stop-color="#c71c36"/></linearGradient><symbol id="Hashmarks" data-name="Hashmarks" viewBox="0 0 536 236.5"><line class="cls-1" x1="535" x2="535" y2="235"/><line class="cls-1" x1="266" x2="266" y2="235"/><line class="cls-1" x1="1" x2="1" y2="235"/><line class="cls-1" x1="1" y1="235.5" x2="535" y2="235.5"/></symbol></defs><title>statehouse_eg_election_curve</title><g id="Layer_2" data-name="Layer 2"><g id="Final_Items" data-name="Final Items"><g id="statehouse_eg_election_curve"><path id="statehouse_eg_election_curve-2" data-name="statehouse_eg_election_curve" class="cls-2" d="M.5,237l65.21-1s26.1-3,36.14-5S133,220,144,216s14.73-6.86,17.06-9c12.55-11.5,23.09-63,30.12-70s13.05-12,17.07-17,27.1-84,35.13-92S268.51-.44,281.55,0c14.56.5,22.09,26,33.13,45s11.65,15.21,17.07,25c16.06,29,26.1,76,33.13,90,6.67,13.29,10,7,18.07,13s29.61,22.5,53.21,54c3,4,2,10,2,10H.5Z"/><use id="Hashmarks-3" data-name="Hashmarks" width="536" height="236.5" transform="translate(0 0.51)" xlink:href="#Hashmarks"/></g></g></g></svg>