<svg xmlns="http://www.w3.org/2000/svg" xmlns:xlink="http://www.w3.org/1999/xlink" viewBox="0 0 536 236.5"><defs><style>.cls-1{fill:#fff;stroke:#a9a9a9;stroke-miterlimit:10;stroke-width:2px;}.cls-2{fill:url(#linear-gradient);}</style><linearGradient id="linear-gradient" x1="64.35" y1="123.18" x2="534.12" y2="123.18" gradientUnits="userSpaceOnUse"><stop offset="0" stop-color="#0049a8"/><stop offset="0.43" stop-color="#f2e5fa"/><stop offset="1" stop-color="#c71c36"/></linearGradient><symbol id="Hashmarks" data-name="Hashmarks" viewBox="0 0 536 236.5"><line class="cls-1" x1="535" x2="535" y2="235"/><line class="cls-1" x1="266" x2="266" y2="235"/><line class="cls-1" x1="1" x2="1" y2="235"/><line class="cls-1" x1="1" y1="235.5" x2="535" y2="235.5"/></symbol></defs><title>statesenate_bias_plan_curve</title><g id="Layer_2" data-name="Layer 2"><g id="Final_Items_PLAN" data-name="Final Items PLAN"><g id="statesenate_bias_plan_curve"><path id="statesenate_bias_plan_curve_2020" class="cls-2" d="M534.12,228.28s-18.56,7-29.05,0-21-33.55-31.48-41.65-21,9.26-31.48-6.94-21-81-31.48-90.25-21,47.44-31.48,34.71-21-98.35-31.48-111.07-21,32.39-31.48,34.71S295.2,24.69,284.71,27s-21,25.46-31.48,34.71-21,1.16-31.48,20.83-21,79.83-31.48,97.19-21,2.31-31.48,6.94-21,15-31.48,20.83a187.34,187.34,0,0,1-31.48,13.88c-10.49,3.47-31.48,6.94-31.48,6.94v7.18H534Z"/><use width="536" height="236.5" xlink:href="#Hashmarks"/></g></g></g></svg>