<svg xmlns="http://www.w3.org/2000/svg" xmlns:xlink="http://www.w3.org/1999/xlink" viewBox="0 0 536 236.5"><defs><style>.cls-1{fill:#fff;stroke:#a9a9a9;stroke-miterlimit:10;stroke-width:2px;}.cls-2{fill:url(#linear-gradient);}</style><linearGradient id="linear-gradient" x1="0.5" y1="126" x2="535.5" y2="126" gradientUnits="userSpaceOnUse"><stop offset="0" stop-color="#0049a8"/><stop offset="0.5" stop-color="#f2e5fa"/><stop offset="1" stop-color="#c71c36"/></linearGradient><symbol id="Hashmarks" data-name="Hashmarks" viewBox="0 0 536 236.5"><line class="cls-1" x1="535" x2="535" y2="235"/><line class="cls-1" x1="266" x2="266" y2="235"/><line class="cls-1" x1="1" x2="1" y2="235"/><line class="cls-1" x1="1" y1="235.5" x2="535" y2="235.5"/></symbol></defs><title>statehouse_eg_plan_curve</title><g id="Layer_2" data-name="Layer 2"><g id="Final_Items" data-name="Final Items"><g id="statehouse_eg_plan_curve"><path id="statehouse_eg_plan_curve-2" data-name="statehouse_eg_plan_curve" class="cls-2" d="M65.74,226.5s10.5,7.5,23.59,7.5c2,0,27.1,1,27.1,1,9-6,22.77-18.5,25.6-18.5,4,0,5,1,16.06,0s23.09-88,32.12-87,15.06,45,22.08,45,19.09-115.5,26.1-116c14.05-1,17.06,45,23.09,45,9.08,0,16.06-88,27.1-87s21.08,84,25.09,96,15.8,22.95,22.08,31c7,9,19.07,47,26.1,48s15.06-48,33.12-47c23.06,1.28,43.17,66,43.17,66v25H65.74Z"/><use id="Hashmarks-3" data-name="Hashmarks" width="536" height="236.5" xlink:href="#Hashmarks"/></g></g></g></svg>