<svg xmlns="http://www.w3.org/2000/svg" xmlns:xlink="http://www.w3.org/1999/xlink" viewBox="0 0 535.5 235.5"><defs><style>.cls-1{fill:url(#linear-gradient);}.cls-2{fill:none;}</style><linearGradient id="linear-gradient" y1="117.5" x2="535" y2="117.5" gradientUnits="userSpaceOnUse"><stop offset="0" stop-color="#0049a8"/><stop offset="0.5" stop-color="#f2e5fa"/><stop offset="1" stop-color="#c71c36"/></linearGradient></defs><title>statehouse_bias_plan_curve</title><g id="Layer_2" data-name="Layer 2"><g id="Final_Items" data-name="Final Items"><g id="statehouse_bias_plan_curve"><path id="statehouse_bias_plan_curve-2" data-name="statehouse_bias_plan_curve" class="cls-1" d="M0,234H49.09V227.1a52.08,52.08,0,0,0,25,6.91c8.07,0,20-23.69,30.05-24.68s7,3.95,18,3.95,23-50.36,31.05-51.34c9.17-1.13,18.13,25.74,24.05,24.68,11-2,18-57.27,29-58.25s11,9.87,20,8.88S248.46,1,258.48,0s19,51.35,24,63.19,18.44,34.93,23,41.47c9,12.84,23,90.84,32.06,90.84s14-25.67,24-25.67,12.31,7.39,20,12.83c7,4.94,23.05,12.84,30.06,18.76S438.82,235,438.82,235H535Z"/><rect class="cls-2" x="0.5" y="0.5" width="535" height="235"/></g></g></g></svg>