<svg xmlns="http://www.w3.org/2000/svg" xmlns:xlink="http://www.w3.org/1999/xlink" viewBox="0 0 536 236.5"><defs><style>.cls-1{fill:#fff;stroke:#a9a9a9;stroke-miterlimit:10;stroke-width:2px;}.cls-2{fill:url(#linear-gradient);}</style><linearGradient id="linear-gradient" x1="1" y1="151.43" x2="529" y2="151.43" gradientUnits="userSpaceOnUse"><stop offset="0" stop-color="#0049a8"/><stop offset="0.5" stop-color="#f2e5fa"/><stop offset="1" stop-color="#c71c36"/></linearGradient><symbol id="Hashmarks" data-name="Hashmarks" viewBox="0 0 536 236.5"><line class="cls-1" x1="535" x2="535" y2="235"/><line class="cls-1" x1="266" x2="266" y2="235"/><line class="cls-1" x1="1" x2="1" y2="235"/><line class="cls-1" x1="1" y1="235.5" x2="535" y2="235.5"/></symbol></defs><title>statehouse_mmd_plan_curve</title><g id="Layer_2" data-name="Layer 2"><g id="Final_Items" data-name="Final Items"><g id="statehouse_mmd_plan_curve"><path id="statehouse_mmd_plan_curve-2" data-name="statehouse_mmd_plan_curve" class="cls-2" d="M1,236.5H61.33v-8L80.68,235s13.87,1.93,26,.5c25.43-3,32.06-129,52.51-141.5,8.52-5.21,12.72-5.5,18.8-6,5.61-.46,28.19-9.5,38.14-9.5s15.48,2,23.22,1c9.79-1.26,16.53-14.7,28.74-13,14.38,2,26,76.5,39.81,77,9.4.34,13.81-5.42,19.9-5,14.37,1,23.59,28,34.27,36,12.71,9.5,22.11,13,32.06,18s15.48,18,24.32,18c13.27,0,21-36,33.17-36,11.62,0,21.56,53.5,38.14,56.5,9.76,1.77,16.59-2,22.67-3.5a38.94,38.94,0,0,0,0,9H1Z"/><use id="Hashmarks-3" data-name="Hashmarks" width="536" height="236.5" xlink:href="#Hashmarks"/></g></g></g></svg>