<svg xmlns="http://www.w3.org/2000/svg" xmlns:xlink="http://www.w3.org/1999/xlink" viewBox="0 0 536 236.5"><defs><style>.cls-1{fill:#fff;stroke:#a9a9a9;stroke-miterlimit:10;stroke-width:2px;}.cls-2{fill:url(#linear-gradient);}</style><linearGradient id="linear-gradient" x1="0.84" y1="123.77" x2="453.46" y2="123.77" gradientUnits="userSpaceOnUse"><stop offset="0" stop-color="#0049a8"/><stop offset="0.57" stop-color="#f2e5fa"/><stop offset="1" stop-color="#c71c36"/></linearGradient><symbol id="Hashmarks" data-name="Hashmarks" viewBox="0 0 536 236.5"><line class="cls-1" x1="535" x2="535" y2="235"/><line class="cls-1" x1="266" x2="266" y2="235"/><line class="cls-1" x1="1" x2="1" y2="235"/><line class="cls-1" x1="1" y1="235.5" x2="535" y2="235.5"/></symbol></defs><title>statehouse_eg_plan_curve</title><g id="Layer_2" data-name="Layer 2"><g id="Final_Items_PLAN" data-name="Final Items PLAN"><g id="statehouse_eg_plan_curve"><path id="statehouse_eg_plan_curve_2020" class="cls-2" d="M.86,235.31l452.6-.18V198s-20.12,10.36-30.18,6.22-20.11-16.57-30.17-31.06S373,127.65,362.94,117.3s-20.12-8.29-30.18-6.21-20.12,35.19-30.17,18.63S282.47,7.56,272.41,11.7,252.3,134.9,242.24,154.56,222.12,139,212.06,129.72,192,96.59,181.89,98.66s-20.12,31.06-30.17,43.48-20.12,19.67-30.18,31.06-20.12,31.06-30.17,37.27-20.12-4.14-30.18,0S41.08,232.21,31,235.31.84,229.1.84,229.1Z"/><use width="536" height="236.5" xlink:href="#Hashmarks"/></g></g></g></svg>