<svg xmlns="http://www.w3.org/2000/svg" xmlns:xlink="http://www.w3.org/1999/xlink" viewBox="0 0 536 236.5"><defs><style>.cls-1{fill:#fff;stroke:#a9a9a9;stroke-miterlimit:10;stroke-width:2px;}.cls-2{fill:url(#linear-gradient);}</style><linearGradient id="linear-gradient" x1="111.14" y1="126.47" x2="527.82" y2="126.47" gradientUnits="userSpaceOnUse"><stop offset="0" stop-color="#0049a8"/><stop offset="0.37" stop-color="#f2e5fa"/><stop offset="1" stop-color="#c71c36"/></linearGradient><symbol id="Hashmarks" data-name="Hashmarks" viewBox="0 0 536 236.5"><line class="cls-1" x1="535" x2="535" y2="235"/><line class="cls-1" x1="266" x2="266" y2="235"/><line class="cls-1" x1="1" x2="1" y2="235"/><line class="cls-1" x1="1" y1="235.5" x2="535" y2="235.5"/></symbol></defs><g id="Layer_2" data-name="Layer 2"><g id="Final_Items_PLAN" data-name="Final Items PLAN"><g id="statehouse_mmd_plan_curve"><path id="statehouse_mmd_plan_curve_2020" class="cls-2" d="M111.66,235.5l416.16,1V209.25S509.3,235.47,500,226.73s-18.52-61.19-27.78-69.94-18.51,20.4-27.77,17.49-18.52-21.86-27.78-35-18.52-36.43-27.78-43.71-18.52-7.29-27.78,0-18.52,46.62-27.78,43.71-18.52-49.54-27.78-61.19-18.52,1.45-27.78-8.75S259.3,11.09,250,16.92,231.52,100,222.26,104.34s-18.52-56.82-27.78-61.19S176,56.26,166.7,78.12s-18.52,71.39-27.78,96.16-27.78,52.45-27.78,52.45Z"/><use width="536" height="236.5" xlink:href="#Hashmarks"/></g></g></g></svg>