<svg xmlns="http://www.w3.org/2000/svg" xmlns:xlink="http://www.w3.org/1999/xlink" viewBox="0 0 535 235.5"><defs><style>.cls-1{fill:url(#linear-gradient);}.cls-2{fill:none;}</style><linearGradient id="linear-gradient" y1="118" x2="535" y2="118" gradientUnits="userSpaceOnUse"><stop offset="0" stop-color="#0049a8"/><stop offset="0.5" stop-color="#f2e5fa"/><stop offset="1" stop-color="#c71c36"/></linearGradient></defs><title>statehouse_bias_election_curve</title><g id="Layer_2" data-name="Layer 2"><g id="Final_Items" data-name="Final Items"><g id="statehouse_bias_election_curve"><path id="statehouse_bias_election_curve-2" data-name="statehouse_bias_election_curve" class="cls-1" d="M0,235s48.55-.5,48,0c15.52-4.48,46.55-22.4,55.06-24.89s13.51-1.5,21-3,26.52-39.33,34.53-39.33,7.9-2.29,16-5c9-3,27-67.71,33-73.69,4.13-4.1,15-8,24-19.91,2.68-3.56,19-68.71,31-68.71s44,33.86,50,43.81,17,31.87,24,47.8c4.34,9.87,60.68,111.14,66.07,116.5,6,6,28,23.9,35,23.9v3H535Z"/><rect class="cls-2" width="535" height="235"/></g></g></g></svg>