<svg xmlns="http://www.w3.org/2000/svg" xmlns:xlink="http://www.w3.org/1999/xlink" viewBox="0 0 538.5 236.5"><defs><style>.cls-1{fill:url(#linear-gradient);}.cls-2{fill:#fff;stroke:#a9a9a9;stroke-miterlimit:10;stroke-width:2px;}.cls-3{fill:none;}</style><linearGradient id="linear-gradient" y1="125.5" x2="535" y2="125.5" gradientUnits="userSpaceOnUse"><stop offset="0" stop-color="#0049a8"/><stop offset="0.5" stop-color="#f2e5fa"/><stop offset="1" stop-color="#c71c36"/></linearGradient></defs><title>statehouse_eg_plan_curve</title><g id="Layer_2" data-name="Layer 2"><g id="Final_Items" data-name="Final Items"><g id="statehouse_eg_plan_curve"><path id="statehouse_eg_plan_curve-2" data-name="statehouse_eg_plan_curve" class="cls-1" d="M65.24,226s10.5,7.5,23.59,7.5c2,0,27.1,1,27.1,1,9-6,22.77-18.5,25.6-18.5,4,0,5,1,16.06,0s23.09-88,32.12-87,15.06,45,22.08,45,19.09-115.5,26.1-116C251.94,57,255,103,261,103c9.08,0,16.06-88,27.1-87s21.08,84,25.09,96S329,135,335.25,143c7,9,19.07,47,26.1,48s15.06-48,33.12-47c23.06,1.28,43.17,66,43.17,66v25H65.24Z"/><g id="Hashmarks"><line class="cls-2" x1="516.5" x2="516.5" y2="235"/><line class="cls-2" x1="269.5" x2="269.5" y2="235"/><line class="cls-2" x1="24.5" x2="24.5" y2="235"/><line class="cls-2" x1="4.5" y1="235.5" x2="538.5" y2="235.5"/></g><rect class="cls-3" y="1" width="535" height="235"/></g></g></g></svg>