<svg xmlns="http://www.w3.org/2000/svg" xmlns:xlink="http://www.w3.org/1999/xlink" viewBox="0 0 536 236.5"><defs><style>.cls-1{fill:#fff;stroke:#a9a9a9;stroke-miterlimit:10;stroke-width:2px;}.cls-2{fill:url(#linear-gradient);}</style><linearGradient id="linear-gradient" x1="1.81" y1="134.25" x2="535.26" y2="134.25" gradientUnits="userSpaceOnUse"><stop offset="0" stop-color="#0049a8"/><stop offset="0.5" stop-color="#f2e5fa"/><stop offset="1" stop-color="#c71c36"/></linearGradient><symbol id="Hashmarks" data-name="Hashmarks" viewBox="0 0 536 236.5"><line class="cls-1" x1="535" x2="535" y2="235"/><line class="cls-1" x1="266" x2="266" y2="235"/><line class="cls-1" x1="1" x2="1" y2="235"/><line class="cls-1" x1="1" y1="235.5" x2="535" y2="235.5"/></symbol></defs><title>statesenate_eg_plan_curve</title><g id="Layer_2" data-name="Layer 2"><g id="Final_Items" data-name="Final Items"><g id="statesenate_eg_plan_curve"><path id="statehouse_eg_plan_curve" class="cls-2" d="M95.79,229.5s39.82,3.5,54,2.5,24.74-24.18,36-27c12-3,19.8-5.6,27-11,8-6,21.52-24.33,32-27,13.29-3.38,12.82-10.29,22-16,9.88-6.15,17.83-118,32-118,7,0,29.86,66,35,78s15.95,41.95,24,50c9,9,14,4,23,5s17,25,32,27c8.43,1.12,17.65-10.74,34-10,22,1,32.09,19.34,36.84,27.5C500.75,240,505.75,228,525.75,230c3,5,9.51,5.5,9.51,5.5H95.79Z"/><use id="Hashmarks-3" data-name="Hashmarks" width="536" height="236.5" xlink:href="#Hashmarks"/></g></g></g></svg>