<svg xmlns="http://www.w3.org/2000/svg" xmlns:xlink="http://www.w3.org/1999/xlink" viewBox="0 0 536 236.5"><defs><style>.cls-1{fill:#fff;stroke:#a9a9a9;stroke-miterlimit:10;stroke-width:2px;}.cls-2{fill:url(#linear-gradient);}</style><linearGradient id="linear-gradient" x1="1.25" y1="119" x2="534.25" y2="119" gradientUnits="userSpaceOnUse"><stop offset="0" stop-color="#0049a8"/><stop offset="0.5" stop-color="#f2e5fa"/><stop offset="1" stop-color="#c71c36"/></linearGradient><symbol id="Hashmarks" data-name="Hashmarks" viewBox="0 0 536 236.5"><line class="cls-1" x1="535" x2="535" y2="235"/><line class="cls-1" x1="266" x2="266" y2="235"/><line class="cls-1" x1="1" x2="1" y2="235"/><line class="cls-1" x1="1" y1="235.5" x2="535" y2="235.5"/></symbol></defs><title>statehouse_bias_plan_curve</title><g id="Layer_2" data-name="Layer 2"><g id="Final_Items" data-name="Final Items"><g id="statehouse_bias_plan_curve"><path id="statehouse_bias_plan_curve-2" data-name="statehouse_bias_plan_curve" class="cls-2" d="M1.25,235.51H6.16V228.6a71.62,71.62,0,0,0,30.05,6.91c9.7,0,24-23.69,36.07-24.68s8.42,3.95,21.64,3.95,27.65-50.36,37.27-51.34c11-1.13,21.76,25.74,28.85,24.68,13.23-2,21.65-57.27,34.87-58.25s13.22,9.87,24.05,8.88c10.68-1,26.44-136.25,38.47-137.24s22.84,51.35,28.85,63.19,22.14,34.93,27.65,41.47C324.75,119,341.59,197,352.41,197s16.83-25.67,28.85-25.67,14.76,7.39,24,12.83c8.42,4.94,27.66,12.84,36.07,18.76s32.46,33.57,32.46,33.57h60.42Z"/><use id="Hashmarks-3" data-name="Hashmarks" width="536" height="236.5" xlink:href="#Hashmarks"/></g></g></g></svg>