<svg xmlns="http://www.w3.org/2000/svg" xmlns:xlink="http://www.w3.org/1999/xlink" viewBox="0 0 568.25 236.5"><defs><style>.cls-1{fill:#fff;stroke:#a9a9a9;stroke-miterlimit:10;stroke-width:2px;}.cls-2{fill:url(#linear-gradient);}</style><linearGradient id="linear-gradient" x1="0.88" y1="126" x2="568.25" y2="126" gradientUnits="userSpaceOnUse"><stop offset="0" stop-color="#0049a8"/><stop offset="0.5" stop-color="#f2e5fa"/><stop offset="1" stop-color="#c71c36"/></linearGradient><symbol id="Hashmarks" data-name="Hashmarks" viewBox="0 0 536 236.5"><line class="cls-1" x1="535" x2="535" y2="235"/><line class="cls-1" x1="266" x2="266" y2="235"/><line class="cls-1" x1="1" x2="1" y2="235"/><line class="cls-1" x1="1" y1="235.5" x2="535" y2="235.5"/></symbol></defs><title>statehouse_eg_plan_curve</title><g id="Layer_2" data-name="Layer 2"><g id="Final_Items" data-name="Final Items"><g id="statehouse_eg_plan_curve"><path id="statehouse_eg_plan_curve-2" data-name="statehouse_eg_plan_curve" class="cls-2" d="M.89,226.5S.11,234,19.08,234c2.91,0,24.29,1,24.29,1,13.1-6,33-18.5,37.11-18.5,5.82,0,7.27,1,23.28,0s33.47-88,46.56-87,21.83,45,32,45S210,59,220.17,58.5c20.37-1,24.74,45,33.47,45,13.17,0,23.28-88,39.29-87s30.55,84,36.38,96,22.9,22.95,32,31c10.18,9,27.65,47,37.83,48s21.83-48,48-47c33.42,1.28,62.57,66,62.57,66v25H.89Z"/><use id="Hashmarks-3" data-name="Hashmarks" width="536" height="236.5" xlink:href="#Hashmarks"/></g></g></g></svg>
