<svg xmlns="http://www.w3.org/2000/svg" xmlns:xlink="http://www.w3.org/1999/xlink" viewBox="0 0 543 236.5"><defs><style>.cls-1{fill:url(#linear-gradient);}.cls-2{fill:#fff;stroke:#a9a9a9;stroke-miterlimit:10;stroke-width:2px;}.cls-3{fill:none;}</style><linearGradient id="linear-gradient" y1="149.93" x2="535" y2="149.93" gradientUnits="userSpaceOnUse"><stop offset="0" stop-color="#0049a8"/><stop offset="0.5" stop-color="#f2e5fa"/><stop offset="1" stop-color="#c71c36"/></linearGradient></defs><title>statehouse_mmd_plan_curve</title><g id="Layer_2" data-name="Layer 2"><g id="Final_Items" data-name="Final Items"><g id="statehouse_mmd_plan_curve"><path id="statehouse_mmd_plan_curve-2" data-name="statehouse_mmd_plan_curve" class="cls-1" d="M0,235H82.39v-8l17.8,6.5s12.76,1.93,23.9.5c23.39-3,29.49-129,48.31-141.5,7.84-5.21,11.7-5.5,17.29-6,5.17-.46,25.94-9.5,35.09-9.5s14.24,2,21.36,1c9-1.26,15.21-14.7,26.45-13,13.22,2,23.9,76.5,36.61,77,8.65.34,12.71-5.42,18.31-5,13.22,1,21.7,28,31.53,36,11.7,9.5,20.34,13,29.5,18s14.24,18,22.37,18c12.21,0,19.33-36,30.52-36,10.69,0,19.83,53.5,35.09,56.5,9,1.77,15.25-2,20.85-3.5a42,42,0,0,0,0,9H0Z"/><g id="Hashmarks"><line class="cls-2" x1="521" x2="521" y2="235"/><line class="cls-2" x1="274" x2="274" y2="235"/><line class="cls-2" x1="29" x2="29" y2="235"/><line class="cls-2" x1="9" y1="235.5" x2="543" y2="235.5"/></g><rect class="cls-3" x="4.5" y="1" width="527" height="235"/></g></g></g></svg>