<svg xmlns="http://www.w3.org/2000/svg" xmlns:xlink="http://www.w3.org/1999/xlink" viewBox="0 0 536 236.5"><defs><style>.cls-1{fill:#fff;stroke:#a9a9a9;stroke-miterlimit:10;stroke-width:2px;}.cls-2{fill:url(#linear-gradient);}</style><linearGradient id="linear-gradient" x1="161.83" y1="121.17" x2="529.8" y2="121.17" gradientUnits="userSpaceOnUse"><stop offset="0" stop-color="#0049a8"/><stop offset="0.28" stop-color="#f2e5fa"/><stop offset="1" stop-color="#c71c36"/></linearGradient><symbol id="Hashmarks" data-name="Hashmarks" viewBox="0 0 536 236.5"><line class="cls-1" x1="535" x2="535" y2="235"/><line class="cls-1" x1="266" x2="266" y2="235"/><line class="cls-1" x1="1" x2="1" y2="235"/><line class="cls-1" x1="1" y1="235.5" x2="535" y2="235.5"/></symbol></defs><title>statesenate_mmd_plan_curve</title><g id="Layer_2" data-name="Layer 2"><g id="Final_Items_PLAN" data-name="Final Items PLAN"><g id="statesenate_mmd_plan_curve"><path id="statesenate_mmd_plan_curve_2020" class="cls-2" d="M161.83,235.5h368v-6.43s-16.36,2.19-24.54,0-16.35-12-24.53-13.11-16.35,8.74-24.53,6.55-16.35-14.2-24.53-19.67-16.35-3.27-24.53-13.11-16.35-40.43-24.53-45.89S366.26,166.78,358.08,157s-16.36-48.08-24.53-72.12S317.19,24.73,309,12.71s-16.36-2.19-24.54,0S268.13,16,260,25.82s-16.35,28.41-24.53,45.9-16.35,33.87-24.53,59-16.35,75.4-24.53,91.79-24.53,6.56-24.53,6.56Z"/><use width="536" height="236.5" xlink:href="#Hashmarks"/></g></g></g></svg>