<svg xmlns="http://www.w3.org/2000/svg" xmlns:xlink="http://www.w3.org/1999/xlink" viewBox="0 0 536 236.5"><defs><style>.cls-1{fill:#fff;stroke:#a9a9a9;stroke-miterlimit:10;stroke-width:2px;}.cls-2{fill:url(#linear-gradient);}</style><linearGradient id="linear-gradient" x1="70.35" y1="126.18" x2="522.65" y2="126.18" gradientUnits="userSpaceOnUse"><stop offset="0" stop-color="#0049a8"/><stop offset="0.43" stop-color="#f2e5fa"/><stop offset="1" stop-color="#c71c36"/></linearGradient><symbol id="Hashmarks" data-name="Hashmarks" viewBox="0 0 536 236.5"><line class="cls-1" x1="535" x2="535" y2="235"/><line class="cls-1" x1="266" x2="266" y2="235"/><line class="cls-1" x1="1" x2="1" y2="235"/><line class="cls-1" x1="1" y1="235.5" x2="535" y2="235.5"/></symbol></defs><g id="Layer_2" data-name="Layer 2"><g id="Final_Items_PLAN" data-name="Final Items PLAN"><g id="statehouse_bias_plan_curve"><path id="statehouse_bias_plan_curve_2020" class="cls-2" d="M70.35,235.64l452.3-.92v-7.6s-20.1-1.31-30.15-7.87-20.1-19.67-30.16-31.47-20.1-23.6-30.15-39.34S412.09,93.37,402,93.37s-20.1,61.63-30.16,55.07S351.78,60.59,341.73,54s-20.1,60.32-30.15,55.07-20.1-73.43-30.16-86.54-20.1-1.31-30.15,7.87-20.1,34.09-30.15,47.2S201,96,191,109.1s-20.1,34.1-30.15,47.21-20.1,24.92-30.15,31.47-20.1,1.31-30.16,7.87-30.15,31.47-30.15,31.47Z"/><use width="536" height="236.5" xlink:href="#Hashmarks"/></g></g></g></svg>