<svg xmlns="http://www.w3.org/2000/svg" xmlns:xlink="http://www.w3.org/1999/xlink" viewBox="0 0 536 236.5"><defs><style>.cls-1{fill:#fff;stroke:#a9a9a9;stroke-miterlimit:10;stroke-width:2px;}.cls-2{fill:url(#linear-gradient);}</style><linearGradient id="linear-gradient" x1="0.5" y1="119" x2="535.5" y2="119" gradientUnits="userSpaceOnUse"><stop offset="0" stop-color="#0049a8"/><stop offset="0.5" stop-color="#f2e5fa"/><stop offset="1" stop-color="#c71c36"/></linearGradient><symbol id="Hashmarks" data-name="Hashmarks" viewBox="0 0 536 236.5"><line class="cls-1" x1="535" x2="535" y2="235"/><line class="cls-1" x1="266" x2="266" y2="235"/><line class="cls-1" x1="1" x2="1" y2="235"/><line class="cls-1" x1="1" y1="235.5" x2="535" y2="235.5"/></symbol></defs><title>statehouse_bias_plan_curve</title><g id="Layer_2" data-name="Layer 2"><g id="Final_Items" data-name="Final Items"><g id="statehouse_bias_plan_curve"><path id="statehouse_bias_plan_curve-2" data-name="statehouse_bias_plan_curve" class="cls-2" d="M.5,235.51H49.59V228.6a52.08,52.08,0,0,0,25,6.91c8.07,0,20-23.69,30.05-24.68s7,3.95,18,3.95,23-50.36,31.05-51.34c9.17-1.13,18.13,25.74,24.05,24.68,11-2,18-57.27,29-58.25s11,9.87,20,8.88S249,2.5,259,1.51s19,51.35,24,63.19,18.44,34.93,23,41.47c9,12.84,23,90.84,32.06,90.84s14-25.67,24-25.67,12.31,7.39,20,12.83c7,4.94,23.05,12.84,30.06,18.76s27.05,33.57,27.05,33.57H535.5Z"/><use id="Hashmarks-3" data-name="Hashmarks" width="536" height="236.5" xlink:href="#Hashmarks"/></g></g></g></svg>