<svg xmlns="http://www.w3.org/2000/svg" xmlns:xlink="http://www.w3.org/1999/xlink" viewBox="0 0 536 236.5"><defs><style>.cls-1{fill:#fff;stroke:#a9a9a9;stroke-miterlimit:10;stroke-width:2px;}.cls-2{fill:url(#linear-gradient);}</style><linearGradient id="linear-gradient" x1="0.5" y1="119" x2="535.5" y2="119" gradientUnits="userSpaceOnUse"><stop offset="0" stop-color="#0049a8"/><stop offset="0.5" stop-color="#f2e5fa"/><stop offset="1" stop-color="#c71c36"/></linearGradient><symbol id="Hashmarks" data-name="Hashmarks" viewBox="0 0 536 236.5"><line class="cls-1" x1="535" x2="535" y2="235"/><line class="cls-1" x1="266" x2="266" y2="235"/><line class="cls-1" x1="1" x2="1" y2="235"/><line class="cls-1" x1="1" y1="235.5" x2="535" y2="235.5"/></symbol></defs><title>statehouse_bias_election_curve</title><g id="Layer_2" data-name="Layer 2"><g id="Final_Items" data-name="Final Items"><g id="statehouse_bias_election_curve"><path id="statehouse_bias_election_curve-2" data-name="statehouse_bias_election_curve" class="cls-2" d="M.5,236s48.55-.5,48,0c15.52-4.48,46.55-22.4,55.06-24.89s13.51-1.5,21-3,26.52-39.33,34.53-39.33,7.9-2.29,16-5c9-3,27-67.71,33-73.69,4.13-4.1,15-8,24-19.91,2.68-3.56,19-68.71,31-68.71s44,33.86,50,43.81,17,31.87,24,47.8c4.34,9.87,60.68,111.14,66.07,116.5,6,6,28,23.9,35,23.9v3H535.5Z"/><use id="Hashmarks-3" data-name="Hashmarks" width="536" height="236.5" xlink:href="#Hashmarks"/></g></g></g></svg>