<svg xmlns="http://www.w3.org/2000/svg" xmlns:xlink="http://www.w3.org/1999/xlink" viewBox="0 0 535.5 235"><defs><style>.cls-1{fill:url(#linear-gradient);}.cls-2{fill:none;}</style><linearGradient id="linear-gradient" y1="128.93" x2="535" y2="128.93" gradientUnits="userSpaceOnUse"><stop offset="0" stop-color="#0049a8"/><stop offset="0.5" stop-color="#f2e5fa"/><stop offset="1" stop-color="#c71c36"/></linearGradient></defs><title>ushouse_mmd_election_curve</title><g id="Layer_2" data-name="Layer 2"><g id="Final_Items" data-name="Final Items"><g id="ushouse_mmd_election_curve"><path id="ushouse_mmd_election_curve-2" data-name="ushouse_mmd_election_curve" class="cls-1" d="M0,234.5s9.54-1.5,17.06-3,6,2,24.09-3,28.11-29,37.14-38,34.13-36,46.18-43,37.13-34,41.15-42,27.1-40,33.12-49,16.06-24,26.1-25,16.06,4,28.11,4,7.88-8.75,27.1-12c26.6-4.5,28.87,97.26,51.19,88,12-5,7-12,22.08-14s18.93,23.7,39.15,37c26.6,17.5,32.86,25.15,49.18,40,23.09,21,36.14,49,52.2,54s23.58,2.5,31.11,3,10,3,10,3Z"/><rect class="cls-2" x="0.5" width="535" height="235"/></g></g></g></svg>