<svg xmlns="http://www.w3.org/2000/svg" xmlns:xlink="http://www.w3.org/1999/xlink" viewBox="0 0 536 237.06"><defs><style>.cls-1{fill:#fff;stroke:#a9a9a9;stroke-miterlimit:10;stroke-width:2px;}.cls-2{fill:url(#linear-gradient);}</style><linearGradient id="linear-gradient" x1="64.94" y1="154.08" x2="517.75" y2="154.08" gradientUnits="userSpaceOnUse"><stop offset="0" stop-color="#0049a8"/><stop offset="0.44" stop-color="#f2e5fa"/><stop offset="1" stop-color="#c71c36"/></linearGradient><symbol id="Hashmarks" data-name="Hashmarks" viewBox="0 0 536 236.5"><line class="cls-1" x1="535" x2="535" y2="235"/><line class="cls-1" x1="266" x2="266" y2="235"/><line class="cls-1" x1="1" x2="1" y2="235"/><line class="cls-1" x1="1" y1="235.5" x2="535" y2="235.5"/></symbol></defs><g id="Layer_2" data-name="Layer 2"><g id="Final_Items_PLAN" data-name="Final Items PLAN"><g id="ushouse_mmd_plan_curve"><path id="ushouse_mmd_plan_curve_2020" class="cls-2" d="M64.94,237.06H517.75v-9.55s-20.13-2.91-30.19-8.74-20.13-16-30.19-26.23-20.12-27.68-30.19-35-20.12-5.82-30.18-8.74-20.13-8.74-30.19-8.74-20.12,5.83-30.19,8.74S316.5,162,306.44,157.57s-20.13-21.85-30.19-35S256.12,86.18,246.06,78.9s-20.12-13.12-30.18,0-20.13,65.56-30.19,78.67-20.13-2.91-30.19,0-20.12,11.66-30.19,17.49-20.12,8.74-30.18,17.48-30.19,35-30.19,35Z"/><use width="536" height="236.5" xlink:href="#Hashmarks"/></g></g></g></svg>