<svg xmlns="http://www.w3.org/2000/svg" xmlns:xlink="http://www.w3.org/1999/xlink" viewBox="0 0 464 206"><defs><style>.cls-1{fill:url(#linear-gradient);}</style><linearGradient id="linear-gradient" y1="103" x2="464" y2="103" gradientUnits="userSpaceOnUse"><stop offset="0" stop-color="#0049a8"/><stop offset="0.5" stop-color="#f2e5fa"/><stop offset="1" stop-color="#c71c36"/></linearGradient></defs><title>ushouse_bias_election_curve</title><g id="Layer_2" data-name="Layer 2"><g id="Final_Items" data-name="Final Items"><path id="ushouse_bias_election_curve" class="cls-1" d="M0,206V192s41,9,53,5,34.26-34.06,42-50c8.5-17.5,30.5-83.5,35.5-92.5S147,13.93,156,13c14.5-1.5,20.5,37.5,29,37,12-.71,23.94-50.24,32-50,16.5.5,52.5,111.5,66,116,7.82,2.61,9,5,21,9s28.5,36.5,38,44c13.19,10.42,38,12,61,13,0,0,43,19,61,18v6Z"/></g></g></svg>