<svg xmlns="http://www.w3.org/2000/svg" xmlns:xlink="http://www.w3.org/1999/xlink" viewBox="0 0 536 236.5"><defs><style>.cls-1{fill:#fff;stroke:#a9a9a9;stroke-miterlimit:10;stroke-width:2px;}.cls-2{fill:url(#linear-gradient);}</style><linearGradient id="linear-gradient" x1="74.88" y1="130.92" x2="531.9" y2="130.92" gradientUnits="userSpaceOnUse"><stop offset="0" stop-color="#0049a8"/><stop offset="0.42" stop-color="#f2e5fa"/><stop offset="1" stop-color="#c71c36"/></linearGradient><symbol id="Hashmarks" data-name="Hashmarks" viewBox="0 0 536 236.5"><line class="cls-1" x1="535" x2="535" y2="235"/><line class="cls-1" x1="266" x2="266" y2="235"/><line class="cls-1" x1="1" x2="1" y2="235"/><line class="cls-1" x1="1" y1="235.5" x2="535" y2="235.5"/></symbol></defs><g id="Layer_2" data-name="Layer 2"><g id="Final_Items_PLAN" data-name="Final Items PLAN"><g id="ushouse_bias_plan_curve"><path id="ushouse_bias_plan_curve_2020" class="cls-2" d="M74.88,235h457l-.13-6.87s-20.3-52.45-30.46-52.45-20.3,48.08-30.46,52.45-20.3-17.48-30.46-26.22l-30.46-26.23c-10.15-8.74-20.3-20.4-30.45-26.23s-20.31-7.28-30.46-8.74-20.31,8.74-30.46,0-20.31-33.51-30.46-52.45S267.79,24.1,257.64,27s-20.31,59.73-30.46,78.68-20.31,23.31-30.46,35-20.31,27.69-30.46,35S146,180,135.8,184.37a162.72,162.72,0,0,0-30.46,17.49c-10.15,7.28-30.46,26.22-30.46,26.22Z"/><use width="536" height="236.5" xlink:href="#Hashmarks"/></g></g></g></svg>