<svg xmlns="http://www.w3.org/2000/svg" xmlns:xlink="http://www.w3.org/1999/xlink" viewBox="0 0 492 198.8"><defs><style>.cls-1{fill:url(#New_Gradient_Swatch_1);}</style><linearGradient id="New_Gradient_Swatch_1" y1="99.4" x2="492" y2="99.4" gradientUnits="userSpaceOnUse"><stop offset="0" stop-color="#295475"/><stop offset="0.5" stop-color="#f2e5fa"/><stop offset="1" stop-color="#cc5839"/></linearGradient></defs><title>ushouse_eg_election_curve</title><g id="Layer_2" data-name="Layer 2"><g id="Final_Items" data-name="Final Items"><path class="cls-1" d="M0,195.8l36-3a35.11,35.11,0,0,0,27,2c15-5,27-37,38-35s17,8.59,27,6c5.73-1.5,31.44-47.57,63-88s54.5-70.5,80-77c34.32-8.75,74.67,56.87,93,88,28.9,49.08,52.93,89.43,74,91,27,2,18,1,22,2s32,6,32,6l-3,10-488,1Z"/></g></g></svg>