<svg xmlns="http://www.w3.org/2000/svg" xmlns:xlink="http://www.w3.org/1999/xlink" viewBox="0 0 536 236.5"><defs><style>.cls-1{fill:#fff;stroke:#a9a9a9;stroke-miterlimit:10;stroke-width:2px;}.cls-2{fill:url(#linear-gradient);}</style><linearGradient id="linear-gradient" x1="0.5" y1="122.43" x2="535.5" y2="122.43" gradientUnits="userSpaceOnUse"><stop offset="0" stop-color="#0049a8"/><stop offset="0.5" stop-color="#f2e5fa"/><stop offset="1" stop-color="#c71c36"/></linearGradient><symbol id="Hashmarks" data-name="Hashmarks" viewBox="0 0 536 236.5"><line class="cls-1" x1="535" x2="535" y2="235"/><line class="cls-1" x1="266" x2="266" y2="235"/><line class="cls-1" x1="1" x2="1" y2="235"/><line class="cls-1" x1="1" y1="235.5" x2="535" y2="235.5"/></symbol></defs><title>ushouse_eg_plan_curve</title><g id="Layer_2" data-name="Layer 2"><g id="Final_Items" data-name="Final Items"><g id="ushouse_eg_plan_curve"><path id="ushouse_eg_plan_curve-2" data-name="ushouse_eg_plan_curve" class="cls-2" d="M513.46,236.5v-34s-46.09,26-62.12,25c-48.66-3-90.67-129.5-103.19-132s-18,45-29,38C295.55,103,299.56,4,283,8.5S258.48,93,248,97.5s-13.53-13.6-25-13c-19,1-26.55,76.5-46.09,77-20-3-37.07-7-54.1,0s-26.55,61.5-42.08,68-17-2-26.05-4-33.06,0-33.06,0v10.75H.5l535,.25"/><use id="Hashmarks-3" data-name="Hashmarks" width="536" height="236.5" xlink:href="#Hashmarks"/></g></g></g></svg>