<svg xmlns="http://www.w3.org/2000/svg" xmlns:xlink="http://www.w3.org/1999/xlink" viewBox="0 0 535.5 236.5"><defs><style>.cls-1{fill:url(#linear-gradient);}.cls-2{fill:none;}.cls-3{fill:#fff;stroke:#a9a9a9;stroke-miterlimit:10;stroke-width:2px;}</style><linearGradient id="linear-gradient" x1="0.5" y1="137.1" x2="535.5" y2="137.1" gradientUnits="userSpaceOnUse"><stop offset="0" stop-color="#0049a8"/><stop offset="0.5" stop-color="#f2e5fa"/><stop offset="1" stop-color="#c71c36"/></linearGradient></defs><title>ushouse_eg_election_curve</title><g id="Layer_2" data-name="Layer 2"><g id="Final_Items" data-name="Final Items"><g id="ushouse_eg_election_curve"><path id="ushouse_eg_election_curve-2" data-name="ushouse_eg_election_curve" class="cls-1" d="M19.54,234.5s28.26-3.5,35.92-4,12,7,26.94,2,26.94-37,37.92-35,17,8.6,26.94,6c5.72-1.5,31.37-47.56,62.86-88s54.38-70.5,79.82-77c34.24-8.75,74.5,56.87,92.79,88,28.84,49.08,52.81,89.44,73.84,91,26.94,2,18,1,21.95,2s31.93,6,31.93,6l.15,10h24.9l-535,1Z"/><rect class="cls-2" x="0.5" y="1" width="535" height="235"/><g id="Hashmarks"><line class="cls-3" x1="512" x2="512" y2="235"/><line class="cls-3" x1="265" x2="265" y2="235"/><line class="cls-3" x1="20" x2="20" y2="235"/><line class="cls-3" y1="235.5" x2="534" y2="235.5"/></g></g></g></g></svg>