<svg xmlns="http://www.w3.org/2000/svg" xmlns:xlink="http://www.w3.org/1999/xlink" viewBox="0 0 536 236.5"><defs><style>.cls-1{fill:#fff;stroke:#a9a9a9;stroke-miterlimit:10;stroke-width:2px;}.cls-2{fill:url(#linear-gradient);}</style><linearGradient id="linear-gradient" x1="0.5" y1="144.47" x2="535.5" y2="144.47" gradientUnits="userSpaceOnUse"><stop offset="0" stop-color="#0049a8"/><stop offset="0.5" stop-color="#f2e5fa"/><stop offset="1" stop-color="#c71c36"/></linearGradient><symbol id="Hashmarks" data-name="Hashmarks" viewBox="0 0 536 236.5"><line class="cls-1" x1="535" x2="535" y2="235"/><line class="cls-1" x1="266" x2="266" y2="235"/><line class="cls-1" x1="1" x2="1" y2="235"/><line class="cls-1" x1="1" y1="235.5" x2="535" y2="235.5"/></symbol></defs><title>ushouse_mmd_plan_curve</title><g id="Layer_2" data-name="Layer 2"><g id="Final_Items" data-name="Final Items"><g id="ushouse_mmd_plan_curve"><path id="ushouse_mmd_plan_curve-2" data-name="ushouse_mmd_plan_curve" class="cls-2" d="M16.87,227.5s57.91-87.4,69.56-88c19.43-1,18.41,27,31.71,27,17.42,0,22.54-27.93,35.8-27,14.32,1,17.39,24,26.6,22s28.72-107.6,40.92-109c17.39-2,25.57,50,31.71,57,21.73,24.79,43,46,58.31,56,10.24,6.68,25.54,19.55,36.82,19,20.46-1,28.54-62,44-61s19.31,32.15,31.71,42c16.37,13,48.08,24,60.35,30s41.94,32,41.94,32v9H16.87Z"/><use id="Hashmarks-3" data-name="Hashmarks" width="536" height="236.5" xlink:href="#Hashmarks"/></g></g></g></svg>