<svg xmlns="http://www.w3.org/2000/svg" xmlns:xlink="http://www.w3.org/1999/xlink" viewBox="0 0 506 211.15"><defs><style>.cls-1{fill:url(#linear-gradient);}</style><linearGradient id="linear-gradient" y1="105.57" x2="506" y2="105.57" gradientUnits="userSpaceOnUse"><stop offset="0" stop-color="#0049a8"/><stop offset="0.5" stop-color="#f2e5fa"/><stop offset="1" stop-color="#c71c36"/></linearGradient></defs><title>ushouse_mmd_election_curve</title><g id="Layer_2" data-name="Layer 2"><g id="Final_Items" data-name="Final Items"><path id="ushouse_mmd_election_curve" class="cls-1" d="M0,211.15v-3s6,2,24-3,28-29,37-38,34-36,46-43,37-34,41-42,27-40,33-49,16-24,26-25,16,4,28,4,7.86-8.75,27-12c26.5-4.5,28.77,97.26,51,88,12-5,7-12,22-14s18.86,23.7,39,37c26.5,17.5,32.74,25.15,49,40,23,21,36,49,52,54a69.69,69.69,0,0,0,31,2v4Z"/></g></g></svg>