<svg xmlns="http://www.w3.org/2000/svg" xmlns:xlink="http://www.w3.org/1999/xlink" viewBox="0 0 535.5 236"><defs><style>.cls-1{fill:url(#linear-gradient);}.cls-2{fill:none;}</style><linearGradient id="linear-gradient" x1="0.5" y1="132" x2="535.5" y2="132" gradientUnits="userSpaceOnUse"><stop offset="0" stop-color="#0049a8"/><stop offset="0.5" stop-color="#f2e5fa"/><stop offset="1" stop-color="#c71c36"/></linearGradient></defs><title>ushouse_bias_election_curve</title><g id="Layer_2" data-name="Layer 2"><g id="Final_Items" data-name="Final Items"><g id="ushouse_bias_election_curve"><path id="ushouse_bias_election_curve-2" data-name="ushouse_bias_election_curve" class="cls-1" d="M.5,235l41.08-.25V221s41.07,9,53.1,5,34.32-34.06,42.07-50c8.52-17.5,30.56-83.5,35.57-92.5S188.84,42.93,197.87,42c14.53-1.5,20.54,37.5,29,37,12.05-.71,24-50.24,32.06-50,16.53.5,52.6,111.5,66.13,116,7.83,2.61,9,5,21,9s28.55,36.5,38.07,44c13.21,10.41,38.07,12,61.11,13,0,0,46.09,19,64.12,18l.1,5.8,25.95.2Z"/><polygon class="cls-2" points="535 236 0 235 0 0 535 1 535 236"/></g></g></g></svg>