<svg xmlns="http://www.w3.org/2000/svg" xmlns:xlink="http://www.w3.org/1999/xlink" viewBox="0 0 535.5 236.5"><defs><style>.cls-1{fill:url(#linear-gradient);}.cls-2{fill:#fff;stroke:#a9a9a9;stroke-miterlimit:10;stroke-width:2px;}.cls-3{fill:none;}</style><linearGradient id="linear-gradient" y1="120.93" x2="535" y2="120.93" gradientUnits="userSpaceOnUse"><stop offset="0" stop-color="#0049a8"/><stop offset="0.5" stop-color="#f2e5fa"/><stop offset="1" stop-color="#c71c36"/></linearGradient></defs><title>ushouse_eg_plan_curve</title><g id="Layer_2" data-name="Layer 2"><g id="Final_Items" data-name="Final Items"><g id="ushouse_eg_plan_curve"><path id="ushouse_eg_plan_curve-2" data-name="ushouse_eg_plan_curve" class="cls-1" d="M513,235V201s-46.09,26-62.12,25c-48.66-3-90.67-129.5-103.19-132s-18,45-29,38C295.05,101.5,299.06,2.5,282.53,7S258,91.5,247.46,96s-13.53-13.6-25-13c-19,1-26.55,76.5-46.09,77-20-3-37.07-7-54.1,0s-26.55,61.5-42.08,68-17-2-26.05-4S21,224,21,224v10.75H0L535,235"/><g id="Hashmarks"><line class="cls-2" x1="513" x2="513" y2="235"/><line class="cls-2" x1="266" x2="266" y2="235"/><line class="cls-2" x1="21" x2="21" y2="235"/><line class="cls-2" x1="1" y1="235.5" x2="535" y2="235.5"/></g><polygon class="cls-3" points="535.5 236 0.5 235 0.5 0 535.5 1 535.5 236"/></g></g></g></svg>