<svg xmlns="http://www.w3.org/2000/svg" xmlns:xlink="http://www.w3.org/1999/xlink" viewBox="0 0 536 236.5"><defs><style>.cls-1{fill:#fff;stroke:#a9a9a9;stroke-miterlimit:10;stroke-width:2px;}.cls-2{fill:url(#linear-gradient);}</style><linearGradient id="linear-gradient" x1="0.75" y1="132.5" x2="535.75" y2="132.5" gradientUnits="userSpaceOnUse"><stop offset="0" stop-color="#0049a8"/><stop offset="0.5" stop-color="#f2e5fa"/><stop offset="1" stop-color="#c71c36"/></linearGradient><symbol id="Hashmarks" data-name="Hashmarks" viewBox="0 0 536 236.5"><line class="cls-1" x1="535" x2="535" y2="235"/><line class="cls-1" x1="266" x2="266" y2="235"/><line class="cls-1" x1="1" x2="1" y2="235"/><line class="cls-1" x1="1" y1="235.5" x2="535" y2="235.5"/></symbol></defs><title>ushouse_bias_election_curve</title><g id="Layer_2" data-name="Layer 2"><g id="Final_Items" data-name="Final Items"><g id="ushouse_bias_election_curve"><path id="ushouse_bias_election_curve-2" data-name="ushouse_bias_election_curve" class="cls-2" d="M.75,235.5l41.08-.25V221.5s41.07,9,53.1,5,34.32-34.06,42.07-50C145.52,159,167.56,93,172.57,84s16.52-40.57,25.55-41.5c14.53-1.5,20.54,37.5,29,37,12.05-.71,24-50.24,32.06-50,16.53.5,52.6,111.5,66.13,116,7.83,2.61,9,5,21,9s28.55,36.5,38.07,44c13.21,10.41,38.07,12,61.11,13,0,0,46.09,19,64.12,18l.1,5.8,25.95.2Z"/><use id="Hashmarks-3" data-name="Hashmarks" width="536" height="236.5" xlink:href="#Hashmarks"/></g></g></g></svg>