<svg xmlns="http://www.w3.org/2000/svg" xmlns:xlink="http://www.w3.org/1999/xlink" viewBox="0 0 536 236.5"><defs><style>.cls-1{fill:#fff;stroke:#a9a9a9;stroke-miterlimit:10;stroke-width:2px;}.cls-2{fill:url(#linear-gradient);}</style><linearGradient id="linear-gradient" x1="0.25" y1="130.43" x2="535.25" y2="130.43" gradientUnits="userSpaceOnUse"><stop offset="0" stop-color="#0049a8"/><stop offset="0.5" stop-color="#f2e5fa"/><stop offset="1" stop-color="#c71c36"/></linearGradient><symbol id="Hashmarks" data-name="Hashmarks" viewBox="0 0 536 236.5"><line class="cls-1" x1="535" x2="535" y2="235"/><line class="cls-1" x1="266" x2="266" y2="235"/><line class="cls-1" x1="1" x2="1" y2="235"/><line class="cls-1" x1="1" y1="235.5" x2="535" y2="235.5"/></symbol></defs><title>ushouse_mmd_election_curve</title><g id="Layer_2" data-name="Layer 2"><g id="Final_Items" data-name="Final Items"><g id="ushouse_mmd_election_curve"><path id="ushouse_mmd_election_curve-2" data-name="ushouse_mmd_election_curve" class="cls-2" d="M.25,236s9.54-1.5,17.06-3,6,2,24.09-3,28.11-29,37.14-38,34.13-36,46.18-43,37.13-34,41.15-42S193,67,199,58s16.06-24,26.1-25,16.06,4,28.11,4,7.88-8.75,27.1-12c26.6-4.5,28.87,97.26,51.19,88,12-5,7-12,22.08-14s18.93,23.7,39.15,37c26.6,17.5,32.86,25.15,49.18,40C465,197,478,225,494.1,230s23.58,2.5,31.11,3,10,3,10,3Z"/><use id="Hashmarks-3" data-name="Hashmarks" width="536" height="236.5" xlink:href="#Hashmarks"/></g></g></g></svg>