<svg xmlns="http://www.w3.org/2000/svg" xmlns:xlink="http://www.w3.org/1999/xlink" viewBox="0 0 542 236.5"><defs><style>.cls-1{fill:url(#linear-gradient);}.cls-2{fill:#fff;stroke:#a9a9a9;stroke-miterlimit:10;stroke-width:2px;}.cls-3{fill:none;}</style><linearGradient id="linear-gradient" x1="7" y1="132" x2="542" y2="132" gradientUnits="userSpaceOnUse"><stop offset="0" stop-color="#0049a8"/><stop offset="0.5" stop-color="#f2e5fa"/><stop offset="1" stop-color="#c71c36"/></linearGradient></defs><title>ushouse_bias_election_curve</title><g id="Layer_2" data-name="Layer 2"><g id="Final_Items" data-name="Final Items"><g id="ushouse_bias_election_curve"><path id="ushouse_bias_election_curve-2" data-name="ushouse_bias_election_curve" class="cls-1" d="M7,235l41.08-.25V221s41.07,9,53.1,5,34.32-34.06,42.07-50c8.52-17.5,30.56-83.5,35.57-92.5S195.34,42.93,204.37,42c14.53-1.5,20.54,37.5,29,37,12.05-.71,24-50.24,32.06-50,16.53.5,52.6,111.5,66.13,116,7.83,2.61,9,5,21,9s28.55,36.5,38.07,44c13.21,10.41,38.07,12,61.11,13,0,0,46.09,19,64.12,18l.1,5.8,26,.2Z"/><g id="Hashmarks"><line class="cls-2" x1="512" x2="512" y2="235"/><line class="cls-2" x1="265" x2="265" y2="235"/><line class="cls-2" x1="20" x2="20" y2="235"/><line class="cls-2" y1="235.5" x2="534" y2="235.5"/></g><polygon class="cls-3" points="541.5 236 6.5 235 6.5 0 541.5 1 541.5 236"/></g></g></g></svg>