<svg xmlns="http://www.w3.org/2000/svg" xmlns:xlink="http://www.w3.org/1999/xlink" viewBox="0 0 536 236.5"><defs><style>.cls-1{fill:#fff;stroke:#a9a9a9;stroke-miterlimit:10;stroke-width:2px;}.cls-2{fill:url(#linear-gradient);}</style><linearGradient id="linear-gradient" x1="0.5" y1="137.1" x2="535.5" y2="137.1" gradientUnits="userSpaceOnUse"><stop offset="0" stop-color="#0049a8"/><stop offset="0.5" stop-color="#f2e5fa"/><stop offset="1" stop-color="#c71c36"/></linearGradient><symbol id="Hashmarks" data-name="Hashmarks" viewBox="0 0 536 236.5"><line class="cls-1" x1="535" x2="535" y2="235"/><line class="cls-1" x1="266" x2="266" y2="235"/><line class="cls-1" x1="1" x2="1" y2="235"/><line class="cls-1" x1="1" y1="235.5" x2="535" y2="235.5"/></symbol></defs><title>ushouse_eg_election_curve</title><g id="Layer_2" data-name="Layer 2"><g id="Final_Items" data-name="Final Items"><g id="ushouse_eg_election_curve"><path id="ushouse_eg_election_curve-2" data-name="ushouse_eg_election_curve" class="cls-2" d="M19.54,234.5s28.26-3.5,35.92-4,12,7,26.94,2,26.94-37,37.91-35,17,8.6,26.94,6c5.72-1.5,31.37-47.56,62.86-88s54.38-70.5,79.82-77c34.25-8.75,74.51,56.87,92.8,88,28.83,49.08,52.81,89.44,73.83,91,26.94,2,18,1,21.95,2s31.93,6,31.93,6l.15,10H535.5l-535,1Z"/><use id="Hashmarks-3" data-name="Hashmarks" width="536" height="236.5" xlink:href="#Hashmarks"/></g></g></g></svg>