<svg xmlns="http://www.w3.org/2000/svg" xmlns:xlink="http://www.w3.org/1999/xlink" viewBox="0 0 491 227.15"><defs><style>.cls-1{fill:url(#linear-gradient);}</style><linearGradient id="linear-gradient" x1="491" y1="113.57" x2="0" y2="113.57" gradientUnits="userSpaceOnUse"><stop offset="0" stop-color="#cc5839"/><stop offset="0.5" stop-color="#f2e5fa"/><stop offset="1" stop-color="#295475"/></linearGradient></defs><title>ushouse_eg_plan_curve</title><g id="Layer_2" data-name="Layer 2"><g id="Final_Items" data-name="Final Items"><path class="cls-1" d="M491,227.15v-33s-46,26-62,25c-48.57-3-90.5-129.5-103-132s-18,45-29,38c-23.5-30.5-19.5-129.5-36-125s-24.5,84.5-35,89-13.51-13.61-25-13c-19,1-26.5,76.5-46,77-20-3-37-7-54,0s-26.5,61.5-42,68-17-2-26-4-33,0-33,0v10H487"/></g></g></svg>