<svg xmlns="http://www.w3.org/2000/svg" xmlns:xlink="http://www.w3.org/1999/xlink" viewBox="0 0 464 236.08"><defs><style>.cls-1{fill:url(#linear-gradient);}</style><linearGradient id="linear-gradient" y1="118.04" x2="464" y2="118.04" gradientUnits="userSpaceOnUse"><stop offset="0" stop-color="#0049a8"/><stop offset="0.5" stop-color="#f2e5fa"/><stop offset="1" stop-color="#c71c36"/></linearGradient></defs><title>ushouse_bias_plan_curve</title><g id="Layer_2" data-name="Layer 2"><g id="Final_Items" data-name="Final Items"><path id="ushouse_bias_plan_curve" class="cls-1" d="M0,236v-9s30,10,42,9a134.6,134.6,0,0,1,22,0c20-7,43-47,62-66,20.4-20.4,29-12,53-57C203.73,66.64,206-1,218,0s23.86,97.28,36.5,104.5c7,4,11,3,21.5,5.5,11.39,2.71,27.94,37,35.5,43.5s18.72,5.17,28.5,7.5c10.5,2.5,26,16,35,27s20.5,46.5,31,48c8.43,1.21,18.5-22.5,26-29,6.09-5.28,32-20,32-20v49Z"/></g></g></svg>