<svg xmlns="http://www.w3.org/2000/svg" xmlns:xlink="http://www.w3.org/1999/xlink" viewBox="0 0 541.5 236.5"><defs><style>.cls-1{fill:url(#linear-gradient);}.cls-2{fill:#fff;stroke:#a9a9a9;stroke-miterlimit:10;stroke-width:2px;}.cls-3{fill:none;}</style><linearGradient id="linear-gradient" x1="6.5" y1="118.5" x2="541.5" y2="118.5" gradientUnits="userSpaceOnUse"><stop offset="0" stop-color="#0049a8"/><stop offset="0.5" stop-color="#f2e5fa"/><stop offset="1" stop-color="#c71c36"/></linearGradient></defs><title>ushouse_bias_plan_curve</title><g id="Layer_2" data-name="Layer 2"><g id="Final_Items" data-name="Final Items"><g id="ushouse_bias_plan_curve"><path id="ushouse_bias_plan_curve-2" data-name="ushouse_bias_plan_curve" class="cls-1" d="M6.5,235l42,.33v-9.25s30,9.91,42,8.92a136,136,0,0,1,22,0c20-6.94,43-46.6,62-65.44,20.4-20.22,29-11.89,53-56.51,24.73-46,27-113,39-112S290.36,97.46,303,104.62c7,4,11,3,21.5,5.45,11.39,2.69,27.94,36.64,35.5,43.13s18.72,5.13,28.5,7.44c10.5,2.48,26,15.86,35,26.77s20.5,46.1,31,47.59c8.43,1.19,18.5-22.31,26-28.75,6.09-5.24,32-19.83,32-19.83V236h29Z"/><g id="Hashmarks"><line class="cls-2" x1="512" x2="512" y2="235"/><line class="cls-2" x1="265" x2="265" y2="235"/><line class="cls-2" x1="20" x2="20" y2="235"/><line class="cls-2" y1="235.5" x2="534" y2="235.5"/></g><rect class="cls-3" x="6.5" y="1" width="535" height="235"/></g></g></g></svg>