<svg xmlns="http://www.w3.org/2000/svg" xmlns:xlink="http://www.w3.org/1999/xlink" viewBox="0 0 535 237"><defs><style>.cls-1{fill:url(#linear-gradient);}.cls-2{fill:none;}</style><linearGradient id="linear-gradient" y1="143.97" x2="535" y2="143.97" gradientUnits="userSpaceOnUse"><stop offset="0" stop-color="#0049a8"/><stop offset="0.5" stop-color="#f2e5fa"/><stop offset="1" stop-color="#c71c36"/></linearGradient></defs><title>ushouse_mmd_plan_curve</title><g id="Layer_2" data-name="Layer 2"><g id="Final_Items" data-name="Final Items"><g id="ushouse_mmd_plan_curve"><path id="ushouse_mmd_plan_curve-2" data-name="ushouse_mmd_plan_curve" class="cls-1" d="M16.37,226s57.91-87.4,69.56-88c19.43-1,18.41,27,31.71,27,17.42,0,22.54-27.93,35.8-27,14.32,1,17.39,24,26.6,22S208.76,52.4,221,51c17.39-2,25.57,50,31.71,57,21.73,24.79,43,46,58.31,56,10.24,6.68,25.54,19.55,36.82,19,20.46-1,28.54-62,44-61s19.31,32.15,31.71,42c16.37,13,48.08,24,60.35,30s41.94,32,41.94,32v11H535L0,235H16.37Z"/><polygon class="cls-2" points="530 237 6 235 6 0 530 2 530 237"/></g></g></g></svg>