<svg xmlns="http://www.w3.org/2000/svg" xmlns:xlink="http://www.w3.org/1999/xlink" viewBox="0 0 535 235.5"><defs><style>.cls-1{fill:url(#linear-gradient);}.cls-2{fill:none;}</style><linearGradient id="linear-gradient" y1="136.1" x2="535" y2="136.1" gradientUnits="userSpaceOnUse"><stop offset="0" stop-color="#0049a8"/><stop offset="0.5" stop-color="#f2e5fa"/><stop offset="1" stop-color="#c71c36"/></linearGradient></defs><title>ushouse_eg_election_curve</title><g id="Layer_2" data-name="Layer 2"><g id="Final_Items" data-name="Final Items"><g id="ushouse_eg_election_curve"><path id="ushouse_eg_election_curve-2" data-name="ushouse_eg_election_curve" class="cls-1" d="M19,233.5S47.3,230,55,229.5s12,7,26.94,2,26.94-37,37.92-35,17,8.6,26.94,6c5.72-1.5,31.37-47.56,62.86-88S264,44,289.44,37.5c34.24-8.75,74.5,56.87,92.79,88,28.84,49.08,52.81,89.44,73.84,91,26.94,2,18,1,21.95,2s31.93,6,31.93,6l.15,10H535l-535,1Z"/><rect class="cls-2" width="535" height="235"/></g></g></g></svg>