<svg xmlns="http://www.w3.org/2000/svg" xmlns:xlink="http://www.w3.org/1999/xlink" viewBox="0 0 498 186.06"><defs><style>.cls-1{fill:url(#linear-gradient);}</style><linearGradient id="linear-gradient" y1="93.03" x2="498" y2="93.03" gradientUnits="userSpaceOnUse"><stop offset="0" stop-color="#0049a8"/><stop offset="0.5" stop-color="#f2e5fa"/><stop offset="1" stop-color="#c71c36"/></linearGradient></defs><title>ushouse_mmd_plan_curve</title><g id="Layer_2" data-name="Layer 2"><g id="Final_Items" data-name="Final Items"><path id="ushouse_mmd_plan_curve" class="cls-1" d="M0,175.06s56.61-87.4,68-88c19-1,18,27,31,27,17,0,22-27.93,35-27,14,1,17,24,26,22s28.08-107.6,40-109c17-2,25,50,31,57,21.25,24.79,42,46,57,56,10,6.68,25,19.55,36,19,20-1,27.9-62,43-61s18.88,32.15,31,42c16,13,47,24,59,30s41,32,41,32v11l-498-2Z"/></g></g></svg>