<svg xmlns="http://www.w3.org/2000/svg" xmlns:xlink="http://www.w3.org/1999/xlink" viewBox="0 0 536 236.5"><defs><style>.cls-1{fill:#fff;stroke:#a9a9a9;stroke-miterlimit:10;stroke-width:2px;}.cls-2{fill:url(#linear-gradient);}</style><linearGradient id="linear-gradient" x1="20.61" y1="125.12" x2="496.59" y2="125.12" gradientUnits="userSpaceOnUse"><stop offset="0" stop-color="#0049a8"/><stop offset="0.5" stop-color="#f2e5fa"/><stop offset="1" stop-color="#c71c36"/></linearGradient><symbol id="Hashmarks" data-name="Hashmarks" viewBox="0 0 536 236.5"><line class="cls-1" x1="535" x2="535" y2="235"/><line class="cls-1" x1="266" x2="266" y2="235"/><line class="cls-1" x1="1" x2="1" y2="235"/><line class="cls-1" x1="1" y1="235.5" x2="535" y2="235.5"/></symbol></defs><g id="Layer_2" data-name="Layer 2"><g id="Final_Items_PLAN" data-name="Final Items PLAN"><g id="ushouse_eg_plan_curve"><path id="ushouse_eg_plan_curve_2020" class="cls-2" d="M20.61,226.48H52.34c10.58,0,21.15,10.2,31.73,0s21.16-42.26,31.73-61.2,21.16-49.53,31.74-52.45,21.15,48.08,31.73,35S200.42,56,211,34.15s21.15-23.31,31.73-17.48,21.16,36.42,31.73,52.45,21.16,30.6,31.74,43.71,21.15,20.4,31.73,35,21.15,40.8,31.73,52.45,21.15,14.57,31.73,17.49,21.16,0,31.73,0,21.16-1.46,31.74,0,31.73,8.74,31.73,8.74v10h-476Z"/><use width="536" height="236.5" xlink:href="#Hashmarks"/></g></g></g></svg>